<?xml version="1.0" standalone="no"?><!DOCTYPE svg PUBLIC "-//W3C//DTD SVG 1.1//EN" "http://www.w3.org/Graphics/SVG/1.1/DTD/svg11.dtd"><svg t="1780800744516" class="icon" viewBox="0 0 1400 1024" version="1.1" xmlns="http://www.w3.org/2000/svg" p-id="2763" xmlns:xlink="http://www.w3.org/1999/xlink" width="273.4375" height="200"><path d="M136.564364 583.400727l406.434909-235.892363c62.091636-37.236364 142.801455 9.309091 127.255272 80.709818v471.691636c15.546182 74.472727-62.091636 117.853091-127.255272 80.616727l-406.434909-232.727272c-65.163636-37.236364-65.163636-127.162182 0-164.398546z" fill="#2c2c2c" p-id="2764"></path><path d="M1334.272 595.781818c111.709091-179.944727 71.400727-366.126545-40.308364-481.000727-65.163636-65.163636-158.254545-108.544-257.582545-108.544H754.036364c-46.545455 0-83.781818 37.236364-83.781819 83.781818 0 43.380364 37.236364 80.616727 80.709819 80.616727h276.107636c55.854545 0 105.565091 21.783273 142.801455 59.019637 68.235636 68.235636 89.925818 189.253818 0 294.725818-24.855273 27.927273-77.637818 52.782545-114.874182 52.782545H667.182545v161.326546h400.29091c108.544 0 210.944-52.689455 266.798545-142.708364z" fill="#2c2c2c" p-id="2765"></path></svg>