<?xml version="1.0" standalone="no"?><!DOCTYPE svg PUBLIC "-//W3C//DTD SVG 1.1//EN" "http://www.w3.org/Graphics/SVG/1.1/DTD/svg11.dtd"><svg t="1783938269208" class="icon" viewBox="0 0 1024 1024" version="1.1" xmlns="http://www.w3.org/2000/svg" p-id="21590" xmlns:xlink="http://www.w3.org/1999/xlink" width="200" height="200"><path d="M885.76 404.48c-5.12-17.92-23.04-30.72-40.96-33.28l-186.88-28.16-81.92-168.96c-7.68-17.92-25.6-28.16-46.08-28.16s-38.4 10.24-46.08 28.16l-81.92 168.96-186.88 28.16c-17.92 2.56-35.84 15.36-40.96 33.28-5.12 17.92-2.56 38.4 12.8 51.2l135.68 135.68-30.72 189.44c-2.56 17.92 5.12 38.4 20.48 48.64 7.68 5.12 20.48 10.24 30.72 10.24 7.68 0 17.92-2.56 25.6-5.12l163.84-87.04 163.84 87.04c7.68 5.12 15.36 5.12 25.6 5.12s20.48-2.56 30.72-10.24c15.36-10.24 25.6-30.72 20.48-48.64L742.4 591.36l135.68-135.68c7.68-12.8 12.8-33.28 7.68-51.2z" p-id="21591" fill="#cdcdcd"></path></svg>