<?xml version="1.0" standalone="no"?><!DOCTYPE svg PUBLIC "-//W3C//DTD SVG 1.1//EN" "http://www.w3.org/Graphics/SVG/1.1/DTD/svg11.dtd"><svg t="1780803633929" class="icon" viewBox="0 0 1024 1024" version="1.1" xmlns="http://www.w3.org/2000/svg" p-id="9716" xmlns:xlink="http://www.w3.org/1999/xlink" width="200" height="200"><path d="M512 213.333c-23.467 0-42.667 19.2-42.667 42.667v256c0 23.467 19.2 42.667 42.667 42.667h256c23.467 0 42.667-19.2 42.667-42.667 0-23.467-19.2-42.667-42.667-42.667H554.667V256c0-23.467-19.2-42.667-42.667-42.667z" fill="#1afa29" p-id="9717"></path><path d="M512 0C229.231 0 0 229.229 0 512c0 282.769 229.231 512 512 512 187.403 0 350.773-101.035 439.993-251.264 1.186-1.528 23.118-41.181-12.205-63.021-20.043-12.392-46.502-4.79-58.285 15.618l-0.283-0.163C807.439 852.668 669.905 938.667 512 938.667 276.358 938.667 85.333 747.641 85.333 512 85.333 276.358 276.358 85.333 512 85.333S938.667 276.358 938.667 512c0 23.564 19.102 42.667 42.667 42.667 23.564 0 42.667-19.102 42.667-42.667C1024 229.229 794.769 0 512 0z" fill="#1afa29" p-id="9718"></path></svg>