<?xml version="1.0" standalone="no"?><!DOCTYPE svg PUBLIC "-//W3C//DTD SVG 1.1//EN" "http://www.w3.org/Graphics/SVG/1.1/DTD/svg11.dtd"><svg t="1783944166894" class="icon" viewBox="0 0 1024 1024" version="1.1" xmlns="http://www.w3.org/2000/svg" p-id="24245" xmlns:xlink="http://www.w3.org/1999/xlink" width="200" height="200"><path d="M512 58.181818a40.96 40.96 0 1 1-40.96 40.96A40.96 40.96 0 0 1 512 58.181818M512 0a99.141818 99.141818 0 1 0 99.141818 99.141818A99.141818 99.141818 0 0 0 512 0z m389.818182 855.970909h-50.967273V563.432727a339.083636 339.083636 0 1 0-677.934545 0v292.538182H122.181818a29.090909 29.090909 0 0 0 0 58.181818h241.803637a154.530909 154.530909 0 0 0 295.796363 0h242.036364a29.090909 29.090909 0 0 0 0-58.181818zM512 965.818182a96.349091 96.349091 0 0 1-85.410909-51.665455h170.821818A96.581818 96.581818 0 0 1 512 965.818182z m153.832727-109.847273H231.098182V563.432727a280.901818 280.901818 0 1 1 561.570909 0v292.538182z" p-id="24246"></path></svg>
