<?xml version="1.0" standalone="no"?><!DOCTYPE svg PUBLIC "-//W3C//DTD SVG 1.1//EN" "http://www.w3.org/Graphics/SVG/1.1/DTD/svg11.dtd"><svg t="1780803754543" class="icon" viewBox="0 0 1024 1024" version="1.1" xmlns="http://www.w3.org/2000/svg" p-id="11839" xmlns:xlink="http://www.w3.org/1999/xlink" width="200" height="200"><path d="M174.815117 100.044454c-13.153565 0-23.449038 10.850105-23.449038 24.110093-0.572028 13.860669 9.723446 25.315547 22.87701 25.315547h674.939348c13.158681 0 23.454155-11.454878 23.454155-24.710774 0-13.261012-10.295473-24.110093-22.881104-24.715889H174.815117z m843.675208 489.843908L872.636592 307.980066v-84.376629c0-13.261012-10.295473-24.710773-22.881104-24.710773H174.815117c-13.153565 0-23.449038 10.844988-23.449038 24.106v84.376628L5.508252 573.770282c-4.575197 7.232721-6.28821 16.276692-5.143132 25.315547v383.917496c0 22.90464 17.724669 40.987466 38.888667 40.987465H984.740697c21.737049 0 38.89276-18.683506 38.89276-40.987465V599.085829c1.145078-7.837494-0.567934-1.363042-5.143132-9.197467zM872.636592 442.090349l64.702563 136.948931h-64.702563v-136.948931z m-674.939348-192.575801h627.464128v329.524732h-71.502426c-19.446892 0-36.034668-0.447184-38.888667 20.046549-7.437382 50.621884-32.60455 97.032867-69.785319 130.181814-37.179747 33.754745-84.083963 51.832454-133.272197 51.832454-49.19335 0-96.092449-18.077709-133.845247-51.832454-36.602603-32.544175-60.624692-77.748681-69.208175-127.170227-1.145078-21.094413-17.733879-37.971785-38.324826-38.576559H197.696221V249.514548z m-46.903193 208.089107v105.918226H86.086372l64.707679-105.918226z m808.85418 499.930627H63.210384V631.178726h175.097749c15.438605 56.654268 46.331165 107.887065 88.654044 146.463623 49.19335 43.993936 113.826328 71.115616 184.178559 71.115616 67.495163 0 132.700169-25.311454 184.183675-71.115616 42.322879-38.576559 73.206229-89.203559 88.654044-146.463623h175.669776v326.355556zM174.243089 50.022227h674.939348c13.158681 0 23.454155-11.449762 23.454155-25.311454 0-13.261012-10.295473-24.106-22.881104-24.710773H174.243089c-12.581537 0-23.449038 10.850105-23.449038 24.106 0 14.466465 10.295473 25.31657 23.449038 25.916227zM578.067964 532.787933h88.082017v-45.204506h-88.082017v-36.761215h-54.913625v36.761215h-42.901047l25.167168-51.832454h164.164756v-43.389163H527.729536l10.868524-21.094413h-62.919965l-9.150395 21.094413h-52.051441v43.389163h28.029352l-26.884274 54.848134c-2.862185 28.327134 8.010433 42.188826 33.172484 42.188826h38.897877c23.449038-0.604773 34.885497 6.027267 34.885496 19.888959v5.427611H413.335274v43.389163h78.930598c20.59197 0 30.887443 7.838518 30.887443 24.110093v9.643628h54.913626V601.492642h92.084163v-43.389162h-92.084163V532.787933z m-176.746293 70.514936v-241.684216h270.547562v-45.19939H538.025009V299.545984h-56.058704v16.872256h-86.931821c-31.459471 0-46.908309 16.877372-46.908309 51.832454v268.801803h24.022089c19.445868 0 29.173407-11.449762 29.173407-33.749628z" fill="#1296db" p-id="11840"></path></svg>