<?xml version="1.0" standalone="no"?><!DOCTYPE svg PUBLIC "-//W3C//DTD SVG 1.1//EN" "http://www.w3.org/Graphics/SVG/1.1/DTD/svg11.dtd"><svg t="1783885454747" class="icon" viewBox="0 0 1024 1024" version="1.1" xmlns="http://www.w3.org/2000/svg" p-id="2815" xmlns:xlink="http://www.w3.org/1999/xlink" width="200" height="200"><path d="M523.22304 543.47776c-38.69696 0-70.05696 31.36-70.05696 70.05696 0 27.88352 16.43008 51.7632 40.03328 63.0272l0 77.056c0 16.56832 13.45536 30.02368 30.02368 30.02368s30.02368-13.46048 30.02368-30.02368l0-77.056c23.6032-11.264 40.03328-35.1488 40.03328-63.0272C593.28512 574.83776 561.92 543.47776 523.22304 543.47776zM813.42976 403.39456 213.03296 403.39456c-33.16224 0-60.04736 26.8544-60.04736 60.02176l0 400.26624c0 33.16224 26.88512 60.04736 60.04736 60.04736l600.3968 0c33.13152 0 60.01664-26.88512 60.01664-60.04736L873.4464 463.4112C873.45152 430.24896 846.5664 403.39456 813.42976 403.39456zM813.42976 823.64416c0 33.16224-6.87104 40.03328-40.03328 40.03328L253.03552 863.67744c-33.16224 0-40.00256-6.87104-40.00256-40.03328l0-320.19968c0-33.16224 6.84032-40.03328 40.00256-40.03328l520.36096 0c33.16224 0 40.03328 6.86592 40.03328 40.03328L813.42976 823.64416zM229.53472 373.18144c16.67072 0 30.22336-13.2864 30.67904-29.84448l0.06144 0.00512c27.13088-114.688 129.95072-200.13056 252.93824-200.13056 96.13824 0 179.8144 52.32128 224.7936 129.90464 4.67968 10.59328 15.27296 17.99168 27.5968 17.99168 16.66048 0 30.16192-13.50656 30.16192-30.16192 0-6.5024-2.06336-12.51328-5.56032-17.43872-55.33184-95.72864-158.464-160.34304-276.99712-160.34304-154.89024 0-283.88352 106.2912-313.57952 252.32896-0.13824 0.60416-0.26112 1.20832-0.36864 1.82272-0.14336 0.73216-0.30208 1.45408-0.44032 2.18624l0.14336 0.01024c-0.09216 0.97792-0.14336 1.96608-0.14336 2.96448C198.83008 359.43936 212.57728 373.18144 229.53472 373.18144z" p-id="2816" fill="#1296db"></path></svg>