<svg xmlns="http://www.w3.org/2000/svg" viewBox="0 0 1024 1024" aria-hidden="true">
  <path fill="#000" d="M714.325 128H305.792A177.792 177.792 0 0 0 128 299.264v409.899a167.467 167.467 0 0 0 177.792 159.232h408.533a167.467 167.467 0 0 0 177.792-159.232V299.264A177.792 177.792 0 0 0 714.325 128zm-202.624 173.824a77.355 77.355 0 0 0-85.333 59.179l-13.142 78.891h65.75a26.325 26.325 0 1 1 0 52.608h-72.534L360.405 696.32s-6.571 59.179-46.037 59.179-19.712-59.179-19.712-59.179l46.037-197.248h-59.136a28.288 28.288 0 0 1-26.325-26.283c0-26.283 13.141-32.853 26.325-32.853h72.534l19.712-85.333a121.387 121.387 0 0 1 144.64-111.787c13.141 0 46.037 6.571 46.037 39.467-.043 26.112-39.637 19.541-52.779 19.541zm243.2 144.64l-68.779 71.424 42.667 46.933a31.787 31.787 0 0 1 0 46.037c0 6.571-6.571 6.571-19.712 6.571a39.509 39.509 0 0 1-26.283-6.571l-41.643-46.037-57.003 59.179a32.853 32.853 0 0 1-39.467 0 24.661 24.661 0 0 1 0-39.467l58.923-61.184-45.781-50.603a32.555 32.555 0 0 1 46.037-46.037l44.928 49.664 66.816-69.419a27.904 27.904 0 1 1 39.424 39.467z"/>
</svg>
