<?xml version="1.0" standalone="no"?><!DOCTYPE svg PUBLIC "-//W3C//DTD SVG 1.1//EN" "http://www.w3.org/Graphics/SVG/1.1/DTD/svg11.dtd"><svg t="1780801061981" class="icon" viewBox="0 0 1024 1024" version="1.1" xmlns="http://www.w3.org/2000/svg" p-id="7390" xmlns:xlink="http://www.w3.org/1999/xlink" width="200" height="200"><path d="M512 288m40 0l144 0q40 0 40 40l0 0q0 40-40 40l-144 0q-40 0-40-40l0 0q0-40 40-40Z" fill="#1433ec" p-id="7391"></path><path d="M512 432m40 0l144 0q40 0 40 40l0 0q0 40-40 40l-144 0q-40 0-40-40l0 0q0-40 40-40Z" fill="#1433ec" p-id="7392"></path><path d="M744.56 712l22.64 22.624a40 40 0 1 1-56.576 56.576L688 768.576l-22.624 22.624a40 40 0 1 1-56.576-56.576l22.624-22.624-22.624-22.624a40 40 0 1 1 56.576-56.576L688 655.44l22.624-22.624a40 40 0 1 1 56.576 56.576z" fill="#1433ec" p-id="7393"></path><path d="M352 112h80v800h-80z" fill="#1433ec" p-id="7394"></path><path d="M816 928H208a80 80 0 0 1-80-80V176a80 80 0 0 1 80-80h608a80 80 0 0 1 80 80v672a80 80 0 0 1-80 80z m0-704a48 48 0 0 0-48-48H256a48 48 0 0 0-48 48v576a48 48 0 0 0 48 48h512a48 48 0 0 0 48-48V224z" fill="#1433ec" p-id="7395"></path></svg>