<?xml version="1.0" standalone="no"?><!DOCTYPE svg PUBLIC "-//W3C//DTD SVG 1.1//EN" "http://www.w3.org/Graphics/SVG/1.1/DTD/svg11.dtd"><svg t="1784826427518" class="icon" viewBox="0 0 1024 1024" version="1.1" xmlns="http://www.w3.org/2000/svg" p-id="6447" xmlns:xlink="http://www.w3.org/1999/xlink" width="200" height="200"><path d="M814.158 416.896c5.046-9.583 7.99-20.019 8.656-30.693a61.783 61.783 0 0 0-0.567-24.047 55.398 55.398 0 0 0-6.512-15.999c-2.653-4.652-6.463-8.629-11.11-11.597a511.072 511.072 0 0 0-5.023-72.049 378.627 378.627 0 0 0-17.121-65.383c-8.22-23.055-21.229-44.346-38.277-62.642-7.412-8.35-17.626-16.616-30.708-24.897-14.108-8.852-29.146-16.309-44.882-22.267a330.18 330.18 0 0 0-53.871-15.536 292.459 292.459 0 0 0-57.956-5.796 380.465 380.465 0 0 0-47.833 3.086A240.413 240.413 0 0 0 459.13 81.14c-17.19 6.095-33.446 14.307-48.327 24.43-15.494 10.36-29.893 23.898-43.388 40.44-14.242 17.569-24.824 37.5-31.21 58.748a391.925 391.925 0 0 0-14.066 61.379 563.036 563.036 0 0 0-4.039 67.569c-5.685 5.318-10.169 11.658-13.17 18.645a58.126 58.126 0 0 0-6.064 22.267 69.747 69.747 0 0 0 4.028 27.596c4.204 14.031 13.025 26.459 25.199 35.502 4.292 2.783 9.051 4.87 14.07 6.187 3.27 9.234 6.646 18.43 10.126 27.592a217.66 217.66 0 0 0 11.524 22.649c3.717 6.593 8.683 12.485 14.656 17.408a506.065 506.065 0 0 1 31.168 24.51c9.633 8.469 15.414 20.107 16.13 32.477 0.67 9.502 0.995 18.09 0.995 25.823 0.012 7.649-1.7 15.207-5.023 22.186-4.135 8.124-9.759 15.509-16.627 21.8-7.722 7.469-18.58 15.057-32.745 22.78a214.235 214.235 0 0 1-39.759 16.386 780.184 780.184 0 0 1-44.794 12.454 1508.938 1508.938 0 0 0-45.36 12.06 176.165 176.165 0 0 0-40.337 16.47c-11.639 6.455-22.018 14.713-30.712 24.426-8.871 10.555-14.61 23.128-16.627 36.451-6.692 38.519-8.193 70.092-4.521 94.698 3.664 24.61 9.208 39.269 16.623 43.982 4.039 3.021 13.744 5.946 29.219 8.901a951.803 951.803 0 0 0 56.398 8.878 2060.812 2060.812 0 0 0 74.093 8.511 4055.423 4055.423 0 0 0 82.087 7.014 2675.644 2675.644 0 0 0 80.108 4.874c25.819 1.187 48.492 1.776 68.006 1.776h27.159c-16.168-24.916-28.875-51.662-37.833-79.598-9.108-28.687-13.649-58.484-13.484-88.427-0.18-34.032 5.605-67.857 17.129-100.123 11.24-31.355 27.558-60.896 48.377-87.585 20.957-26.868 45.869-50.823 73.986-71.126 28.641-20.816 60.379-37.588 94.193-49.778h0.038a136.437 136.437 0 0 0 5.008-13.388l5.107-12.443a168.975 168.975 0 0 1 4.035-11.597c7.025-1.945 13.541-5.26 19.1-9.74 5.942-4.881 10.873-10.746 14.552-17.308zM684.276 716.837c-21.145 0-38.285 17.14-38.285 38.285v153.14c0 21.145 17.14 38.285 38.285 38.285 21.145 0 38.285-17.14 38.285-38.285v-153.14c0-21.145-17.14-38.285-38.285-38.285z m153.14-114.856c-21.145 0-38.285 17.14-38.285 38.285v267.995c0 21.145 17.14 38.285 38.285 38.285s38.285-17.14 38.285-38.285V640.266c0-21.144-17.14-38.285-38.285-38.285z" p-id="6448"></path></svg>