<?xml version="1.0" standalone="no"?><!DOCTYPE svg PUBLIC "-//W3C//DTD SVG 1.1//EN" "http://www.w3.org/Graphics/SVG/1.1/DTD/svg11.dtd"><svg t="1780982909496" class="icon" viewBox="0 0 1089 1024" version="1.1" xmlns="http://www.w3.org/2000/svg" p-id="14771" xmlns:xlink="http://www.w3.org/1999/xlink" width="212.6953125" height="200"><path d="M1043.087154 446.742569H42.301259c-4.126952 0-7.222166-3.095214-7.222166-7.222166v-41.78539c0-4.126952 3.095214-7.222166 7.222166-7.222167h1001.301764c4.126952 0 7.222166 3.095214 7.222166 7.222167v41.78539c0 4.126952-3.611083 7.222166-7.738035 7.222166z" fill="#13227a" p-id="14772"></path><path d="M531.345088 174.363728L365.235264 0H98.530982C44.364736 0 0 44.364736 0 98.530982v826.938036c0 54.682116 44.364736 98.530982 98.530982 98.530982h892.453401c54.682116 0 98.530982-44.364736 98.530982-98.530982V272.89471c0-54.682116-44.364736-98.530982-98.530982-98.530982H531.345088z m459.639295 769.160705h-892.453401c-9.801511 0-18.055416-8.253904-18.055415-18.055415V98.530982c0-9.801511 8.253904-18.055416 18.055415-18.055415h235.236272l159.403527 174.363728H990.468514c9.801511 0 18.055416 8.253904 18.055415 18.055415v652.574308c0.515869 9.801511-7.738035 18.055416-17.539546 18.055415z" fill="#13227a" p-id="14773"></path></svg>