<?xml version="1.0" standalone="no"?><!DOCTYPE svg PUBLIC "-//W3C//DTD SVG 1.1//EN" "http://www.w3.org/Graphics/SVG/1.1/DTD/svg11.dtd"><svg t="1780588259307" class="icon" viewBox="0 0 1024 1024" version="1.1" xmlns="http://www.w3.org/2000/svg" p-id="2994" xmlns:xlink="http://www.w3.org/1999/xlink" width="200" height="200"><path d="M658.8 410.8c8 13.2 22 20.4 36.4 20.4 6.8 0 14-1.6 20-5.2l118-68c9.6-5.6 16.4-14.4 19.2-25.2 2.8-10.8 1.2-21.6-4.4-31.2-5.6-9.6-14.8-16.8-25.2-19.6-10.4-2.8-21.6-1.2-30.8 4.4l-117.6 67.6c-19.6 11.6-26.8 37.2-15.6 56.8z m0 0M381.2 722.8c-10-5.6-20.8-6.8-31.6-4s-19.6 9.6-25.2 19.2l-21.6 37.6c-5.6 9.6-7.2 20.8-4.4 31.6s10 19.6 19.6 25.2c6.4 3.6 13.2 5.6 20.4 5.6 3.6 0 7.2-0.4 10.4-1.2 10.8-2.8 19.6-9.6 25.6-19.6l21.2-37.2c5.6-9.2 7.2-20 4.4-30.8-2.4-11.2-9.2-20.8-18.8-26.4z m0 0M304.8 615.6c-11.2-19.6-36.4-26.4-56.4-15.6l-57.6 33.2c-9.6 5.6-16.4 14.8-19.2 25.6-2.8 10.8-1.2 21.6 4.4 30.8 5.2 9.2 14 16 24.4 19.2 4 1.2 7.6 1.6 11.6 1.6 7.2 0 14-1.6 20.4-5.2l57.2-33.2c19.6-11.6 26.4-36.8 15.2-56.4z m0 0M374.4 175.2c-5.6-9.6-14.4-16.4-25.2-19.2-10.8-2.8-21.6-1.2-30.8 4.4-9.6 5.6-16.4 14.4-19.2 24.8-2.8 10.8-1.6 21.6 4 31.2l67.6 117.6c8 13.2 22 20.4 36 20.4 7.2 0 14-1.6 20.8-5.6 9.2-5.2 16-14 19.2-24.8 2.8-10.8 1.6-22-4.4-31.6l-68-117.2z m0 0M296 496c0-22.8-18.4-41.2-41.2-41.2H165.2c-22.8 0-41.2 18.8-41.2 41.6s18.4 41.2 41.2 41.2h89.6c22.4-0.4 41.2-18.8 41.2-41.6z m0 0M191.2 358.4l97.6 56c6.4 3.6 13.2 5.2 20.4 5.2 14.4 0 28.4-7.6 36-20.4v-0.4c11.2-19.6 4-44.8-15.2-56l-97.6-56c-10-5.6-21.2-7.2-32-4-10.4 2.8-19.2 10-24.4 19.2-5.6 9.6-7.2 20.8-4.4 31.6 3.2 10.4 10 19.2 19.6 24.8z m0 0M512 781.6c-22.8 0-41.2 18.4-41.2 41.2v20c0 22.8 18.4 41.2 41.2 41.2 22.8 0 41.6-18.4 41.6-41.2v-20c0-22.8-18.8-41.2-41.6-41.2z m0 0M664.8 760.4c-9.6 5.6-16.8 15.2-19.6 26-2.4 10.4-0.8 21.2 4.8 30.4 5.6 9.6 14.4 16 24.8 19.2 3.6 0.8 7.2 1.6 10.8 1.6 7.2 0 14-2 20.4-5.6 9.6-5.2 16.4-14 19.2-24.4 2.8-10.8 1.6-22.4-4.4-32-11.2-20-36-26.4-56-15.2z m0 0M888 466.8c-7.6-8-18.4-12.4-29.6-12.4h-135.6c-22.8 0-41.2 18.4-41.2 41.2 0 22.8 18.4 41.6 41.2 41.6h135.6c11.2 0 21.6-4.4 29.2-12 7.6-7.6 12-18 12-29.2 0.4-10.8-3.6-21.2-11.6-29.2z m0 0M653.6 333.6l68-117.2c5.6-9.6 7.2-20.8 4.4-31.6s-10-19.6-19.6-25.2c-20-11.2-44.8-4.8-56.4 15.2l-68 117.2c-11.2 19.6-4.4 45.2 15.2 56.4 6.4 3.6 13.6 5.6 20.8 5.6 3.6 0 7.6-0.4 11.2-1.6 10-2.4 18.8-9.2 24.4-18.8z m0 0M512 108c-22.4 0-41.2 19.2-41.2 41.6v135.2c0 22.8 18.4 41.6 41.2 41.6 11.2 0 21.6-4.4 29.2-12.4 8-8 12-18.4 12-29.2V149.6c0.4-23.2-18.4-41.6-41.2-41.6z m0 0" fill="#EB6100" p-id="2995"></path></svg>