<?xml version="1.0" standalone="no"?><!DOCTYPE svg PUBLIC "-//W3C//DTD SVG 1.1//EN" "http://www.w3.org/Graphics/SVG/1.1/DTD/svg11.dtd"><svg t="1780588051997" class="icon" viewBox="0 0 1024 1024" version="1.1" xmlns="http://www.w3.org/2000/svg" p-id="1676" xmlns:xlink="http://www.w3.org/1999/xlink" width="200" height="200"><path d="M296.23 917.08c-110.35 0-200.12-89.77-200.12-200.08V292.73c0-110.35 89.77-200.12 200.12-200.12h424.24c110.35 0 200.12 89.77 200.12 200.12V717c0 110.35-89.77 200.12-200.12 200.12z m0-771.32c-81 0-147 65.93-147 147V717c0 81 65.93 147 147 147h424.24c81 0 147-65.93 147-147V292.73c0-81-65.93-147-147-147z" p-id="1677" fill="#1296db"></path><path d="M270 749.76a26.53 26.53 0 1 1 0-53.07h47.78v-201a26.53 26.53 0 1 1 53.07 0v201h104.89V316.36a26.53 26.53 0 0 1 53.07 0v380.33h104.76V369a26.53 26.53 0 1 1 53.07 0v327.69h55.85a26.53 26.53 0 0 1 0 53.07z" p-id="1678" fill="#1296db"></path></svg>